<svg version="1.0" xmlns="http://www.w3.org/2000/svg" width="729.333" height="729.333" viewBox="0 0 547 547"><path d="M270.6 144.2c-5.3 24.9-5.5 25.8-6.5 25.8-.3 0-2.4-3.2-4.5-7-2.2-3.9-4.3-7-4.8-7-1.1 0-1.7 3.2-3.4 21.5-.2 2.2-.6 5.6-.8 7.5-.3 1.9-.8 6.4-1.2 10-1 9.4-1.7 10.1-4.7 4.9-1.3-2.4-4-7.1-5.9-10.4-3.2-5.5-5.5-7.1-5.2-3.5.1.8.5 4.9.8 9 .4 4.1.9 8.5 1.2 9.7.2 1.2-.1 2.5-.6 2.8-.6.4-7.7-4.3-15.8-10.4-9.6-7.2-14.8-10.5-15-9.6-.2.8 4.5 10.7 10.3 22 5.9 11.3 10.5 20.9 10.2 21.1-.5.5-8.6-4-30-16.7-4.4-2.7-8.3-4.6-8.6-4.4-.2.3 5.7 9.8 13.3 21.1l13.7 20.6-7.3-.7c-4-.4-8.5-.8-10-1-4.4-.6-4.1 1 1 5.5 2.6 2.3 7.9 7.1 11.7 10.5 14.8 13.2 19.2 16.7 25.5 19.8 5.8 2.9 7.3 3.2 15.5 3.2 4.9 0 10.6-.3 12.5-.7 1.9-.4 5.8-1.2 8.7-1.8 4.4-1 6.8-.8 15.5.9 24.9 5.1 30.7 2.9 57.4-21.4 1.2-1.1 5.4-4.9 9.3-8.3 3.9-3.5 6.9-6.7 6.6-7.2-.2-.4-1.7-.6-3.2-.5-1.6.1-6.1.6-10.1 1l-7.3.7 13.7-20.6c7.5-11.3 13.5-20.8 13.3-21-.2-.2-8.9 4.5-19.2 10.6-10.4 6-19.1 10.8-19.4 10.5-.2-.3 4.6-10.3 10.8-22.3 8.8-17.1 10.8-21.6 9.2-21.2-1.1.3-8.1 5.2-15.7 10.8-7.5 5.7-13.9 10-14.2 9.8-.3-.3-.5-1.4-.6-2.4-.1-2.1 1.1-16.5 1.7-20.2.7-4.6-2-1.5-7.5 8.4-5.3 9.5-7.4 11.5-7.6 7.7-.3-4.1-1.6-14.9-1.9-16.3-.2-.8-.7-4.9-1.1-9-1.5-16.3-1.9-19.1-2.9-19.2-.5-.1-2.8 2.8-5 6.5-2.2 3.6-4.4 6.5-5 6.3-.5-.1-1.5-3.1-2.1-6.7-.7-3.5-2.9-14.1-4.8-23.4-2-9.4-3.6-17.3-3.6-17.8 0-.4-.4-.7-.8-.7s-3 10.5-5.6 23.2zm6.2 1.3c-.3.3-.2 2.6.3 5.1.5 2.5 1.1 6.6 1.4 9.2.4 2.6 1.3 8.7 2.1 13.5 1.8 10.6 2.3 25.4 1.4 35.7-.4 4.1-1.1 11.3-1.4 16-2.3 27.8-2.4 29.2-3.6 30.4-1.6 1.6-3.2-.7-3.5-5-.4-4.7-1.6-20.4-2-25.9-.2-2.2-.6-7.8-1-12.5-1.1-12.3-1.2-22.6-.3-29.5.5-3.3 1-7.8 1.3-10 .3-2.2 1-6.3 1.5-9 .5-2.8 1.2-7.5 1.6-10.5.4-3 .9-5.8 1-6.3.1-.4.2-.9.3-1.2 0-.3.4-.5.8-.5.3 0 .4.2.1.5zM259 177.3c0 .8.9 4 1.9 7.3 2.5 7.6 2.7 8.4 4.6 27.9.9 8.9 1.4 13.4 2.1 19.5.3 3 .7 7.5.9 9.9.2 2.4.6 6.4.9 9 1.1 8.7 1.5 14.1 1 14.1-.3 0-4.4-8-9.2-17.8-8.3-17-8.6-18-8.7-24.7 0-7.1 1.2-21.1 1.9-22.3.2-.4.7-4.1 1-8.2.4-4.1.9-8.4 1.1-9.5.2-1.1.4-3 .4-4.3.1-2.3 2.1-3.2 2.1-.9zm36.1.4c0 1 .2 2.7.3 3.8.2 1.1.6 4.7 1 8 .3 3.3 1.3 11.4 2.2 18 2.5 18.8 2.6 18-7.5 38.9-5 10.2-9.3 18.6-9.6 18.6-.3 0-.4-1.7-.1-3.8.3-2 .8-6.4 1.1-9.7.8-7.9 1.5-14.2 2-18.5.2-1.9.6-6.7 1-10.5.3-3.9.8-8.1 1-9.5.2-1.4.7-5.7 1-9.5.8-9.2 1.1-10.9 3.5-18.4 1.1-3.5 2-7 2-7.7 0-2.1 2-1.7 2.1.3zm-47.8 59.5c5.3 8.2 19.7 35.6 19.7 37.6 0 1.8-3.1 2.2-6 .7-6.7-3.5-11.1-10-31.8-47.5-2-3.6-6-10.7-8.9-15.9-2.9-5.1-5.3-9.6-5.3-10 .1-2 27.6 27.9 32.3 35.1zm87.8-31.5c-4.5 8.9-33.1 59.4-35.2 62.3-2.1 2.8-10.3 9-11.8 9-.3 0-1.3-.5-2.1-1-1.3-.8-.3-3.3 5.8-15.6 10.4-20.8 16.7-29.9 31.6-45.2 7.1-7.2 13.1-13.2 13.3-13.2.2 0-.5 1.7-1.6 3.7zm-114.6 34.7c11.9 9.8 25.5 24.9 25.5 28.4 0 3-4.7 3.9-7 1.3-.3-.3-3.8-3.3-7.9-6.6-7.2-5.8-20.1-20.7-20.1-23.1 0-.7-.4-1.4-.8-1.6-.9-.3-8.2-12.2-8.2-13.2 0-.4 3 1.9 6.8 5 3.7 3.1 8.9 7.5 11.7 9.8zm123.1-3.8c-9.8 15.7-14.6 20.9-31.7 34.1-2.2 1.7-5.9.5-5.9-2 0-4.2 18.2-23 33.8-35.1 1.5-1.1 4.3-3.5 6.2-5.3 1.9-1.7 3.6-3 3.8-2.8.2.2-2.6 5.2-6.2 11.1zM235 275.2c0 1.4-5.1.8-8.7-.9-3.3-1.5-11.3-8.5-11.3-9.8 0-.3 4.5 1.8 10 4.7 5.5 2.9 10 5.6 10 6zm100.5-8.9c-2.6 4-10.3 8.9-14.8 9.4-3.8.5-4 .4-2.7-1 1.2-1.2 17.7-10.6 18.8-10.7.1 0-.4 1.1-1.3 2.3zM158 306.6c-21.4 4.6-37.5 20.2-42.9 41.6-2.5 9.7-2.7 24.8-.5 33.5 5.3 21.4 20.6 36.8 41.7 41.7 14.1 3.4 35.3.4 50.2-7.1l5.8-3 .2-20.4c.2-20.5 1.1-27.4 4.1-30.4 1.4-1.3-.3-1.5-16.8-1.6-10.1-.1-21.2-.2-24.8-.3-5.8-.1-6.5.1-6.6 1.9-.2 2.4-1.3 13.4-1.9 18.8-.5 3.5-.3 3.7 1.4 2.7 1.1-.5 2.3-1.4 2.6-2 .9-1.4 13.2-5 17.1-5h3.4v26.8l-4.9 1.7c-6 2-18.1 2.1-24.3.2-15.6-4.8-24.2-19.6-24-41.2.1-17 5.2-28.8 15.5-35.9 9-6.2 22.7-7.8 35.5-4.1 5.6 1.7 14.6 6.8 17.1 9.8 1.2 1.5 3.7 1.4 2.7-.1-.2-.4-.7-4.5-1.1-9.2-.4-4.7-.9-9.4-1-10.5-.1-1.1-.3-2.8-.4-3.7-.3-4.3-33.9-7.3-48.1-4.2zM534.6 306.7c-.1.2-16.1.3-35.4.4H464l2.4 3.2c5.6 7.5 5.9 9.8 6.1 52.2.1 26-.3 40.8-1 44.5-1.3 6.3-5 14-6.7 14-.6 0-.8.3-.4.7.4.5 16.8.9 36.4.9 19.6.1 36.9.4 38.4.7 3.4.7 3.4.6 4.2-6.4.4-3.1.8-6.5 1-7.5.2-1.1.7-4.2 1-6.9.4-2.8.9-6.5 1.3-8.4l.6-3.5-4.4 4.3c-9.7 9.4-20.6 12.1-45.5 11.2-2-.1-2-.6-2-18.4l.1-18.2 10.6-.2c12.3-.2 17.3 1.5 20.6 6.7l2.1 3.3 1.1-5.4c.6-3 1.4-7.2 1.7-9.4.3-2.2.9-5.9 1.4-8.2.4-2.3.5-4.4.3-4.7-.2-.2-1.8-.1-3.6.3s-10.2.6-18.7.6h-15.5v-28.9l12-.1c18.9-.1 27.5 2.1 32.8 8.5 2.3 2.7 4.5 4.2 3.4 2.2-.3-.4-.8-4.6-1.2-9.3-.3-4.7-.8-9.5-1-10.5-.2-1.1-.4-3.4-.4-5.2-.1-3-.3-3.2-3.1-3-1.7.1-3.2.4-3.4.5zM39 311c3.4 6.8 2.9 9.5-7.5 39.5-12.4 35.8-17.9 51.3-19.7 54.8-2.5 4.8-6.7 11.1-9.7 14.6-1.2 1.3-2.1 2.5-2.1 2.6 0 .1 7.7.1 17 .1h17l-.7-3.6c-1-5.1-.7-8.6 1.2-15.2l1.8-5.8h43.4l1.8 6.1c1.9 6.9 2.2 14.6.6 16.2-.6.6-1.1 1.4-1.1 1.7 0 .3 8.3.6 18.5.6s18.5-.2 18.5-.4c0-.1-1.2-1.5-2.6-3-6.6-7-10.6-16-24-53.7-15.4-43.4-15.2-42.8-14.8-47.8.1-2.7 1-5.9 1.8-7.2.9-1.4 1.6-2.6 1.6-2.9 0-.2-9.7-.4-21.5-.4l-21.5-.1 2 3.9zm21.4 29.7c.9 4 4.1 14.3 7.1 22.9 3 8.6 5.5 16.2 5.5 16.8 0 .8-4.4 1.1-15.3 1.1H42.3l6.3-18.6c3.5-10.2 6.9-21.8 7.6-25.8 1.4-8 1.7-7.8 4.2 3.6zM257 309.8c4 5.5 3.2 12.2-4.3 33.2-3.6 10.2-8.8 25.2-11.7 33.5-2.8 8.2-6.3 18.1-7.8 22-2.6 6.7-10.8 20.5-13.1 21.9-3 1.9.2 2.3 15.9 2.2 14.8-.1 16.9-.3 16.4-1.6-.4-.8-.8-3.7-1-6.4-.2-4.6.4-7.4 2.8-13.9l1-2.7h42.5l1.9 4.7c1.6 4.4 2.3 13.1 1.3 17.8-.4 1.9.1 2 17.8 2l18.1.1-2.8-3.3c-4.5-5.1-9.9-14.9-13.5-24.7-1.9-5-8.4-23-14.5-40-11.8-33.1-12.5-36.6-9.1-43.6l1.9-3.9-22-.1h-21.9l2.1 2.8zm28.9 53.3c3.4 9.7 6.1 17.8 6.1 18 0 .2-7 .4-15.5.4s-15.5-.1-15.5-.4c0-.2 2.9-9.2 6.5-20s7-22.3 7.7-25.6l1.1-6 1.8 8c1 4.4 4.5 15.9 7.8 25.6zM331.2 311.9c6.2 6.9 8.6 12 17.8 37.6 4.5 12.6 8.5 23.9 9 25 1.1 2.5 6.2 17 8.9 25.2 2.5 7.4 2.7 14 .6 19-.8 1.9-1.5 3.6-1.5 3.7 0 .2 9.2.2 20.5.2s20.5-.3 20.5-.7c0-.4-.6-2.2-1.4-4-3.2-7.7-2.8-9.1 23.1-82.4 4.9-13.8 7.9-19.7 12.5-24.4l4-3.9-17.7-.2-17.7-.1.8 2.3c2 5.7.6 12.5-8.1 38.2-4.8 14.2-8.9 27-9.1 28.4-.3 1.4-.7 2.9-.9 3.2-.2.4-.7 2-1 3.6-1.5 8-4.3 17.6-4.4 15.4-.2-5.1-6.2-26.2-13.1-46-11.3-32.5-11.2-32-10.6-37.4.3-2.6 1-5.4 1.7-6.2.9-1.1-2-1.4-18.5-1.3h-19.7l4.3 4.8z"/></svg>