<?xml version="1.0" standalone="no"?>
<!DOCTYPE svg PUBLIC "-//W3C//DTD SVG 20010904//EN"
 "http://www.w3.org/TR/2001/REC-SVG-20010904/DTD/svg10.dtd">
<svg version="1.0" xmlns="http://www.w3.org/2000/svg"
 width="547.000000pt" height="547.000000pt" viewBox="0 0 547.000000 547.000000"
 preserveAspectRatio="xMidYMid meet">
<metadata>
Created by potrace 1.14, written by Peter Selinger 2001-2017
</metadata>
<g transform="translate(0.000000,547.000000) scale(0.100000,-0.100000)"
fill="#000000" stroke="none">
<path d="M2706 4028 c-53 -249 -55 -258 -65 -258 -3 0 -24 32 -45 70 -22 39
-43 70 -48 70 -11 0 -17 -32 -34 -215 -2 -22 -6 -56 -8 -75 -3 -19 -8 -64 -12
-100 -10 -94 -17 -101 -47 -49 -13 24 -40 71 -59 104 -32 55 -55 71 -52 35 1
-8 5 -49 8 -90 4 -41 9 -85 12 -97 2 -12 -1 -25 -6 -28 -6 -4 -77 43 -158 104
-96 72 -148 105 -150 96 -2 -8 45 -107 103 -220 59 -113 105 -209 102 -211 -5
-5 -86 40 -300 167 -44 27 -83 46 -86 44 -2 -3 57 -98 133 -211 l137 -206 -73
7 c-40 4 -85 8 -100 10 -44 6 -41 -10 10 -55 26 -23 79 -71 117 -105 148 -132
192 -167 255 -198 58 -29 73 -32 155 -32 49 0 106 3 125 7 19 4 58 12 87 18
44 10 68 8 155 -9 249 -51 307 -29 574 214 12 11 54 49 93 83 39 35 69 67 66
72 -2 4 -17 6 -32 5 -16 -1 -61 -6 -101 -10 l-73 -7 137 206 c75 113 135 208
133 210 -2 2 -89 -45 -192 -106 -104 -60 -191 -108 -194 -105 -2 3 46 103 108
223 88 171 108 216 92 212 -11 -3 -81 -52 -157 -108 -75 -57 -139 -100 -142
-98 -3 3 -5 14 -6 24 -1 21 11 165 17 202 7 46 -20 15 -75 -84 -53 -95 -74
-115 -76 -77 -3 41 -16 149 -19 163 -2 8 -7 49 -11 90 -15 163 -19 191 -29
192 -5 1 -28 -28 -50 -65 -22 -36 -44 -65 -50 -63 -5 1 -15 31 -21 67 -7 35
-29 141 -48 234 -20 94 -36 173 -36 178 0 4 -4 7 -8 7 -4 0 -30 -105 -56 -232z
m62 -13 c-3 -3 -2 -26 3 -51 5 -25 11 -66 14 -92 4 -26 13 -87 21 -135 18
-106 23 -254 14 -357 -4 -41 -11 -113 -14 -160 -23 -278 -24 -292 -36 -304
-16 -16 -32 7 -35 50 -4 47 -16 204 -20 259 -2 22 -6 78 -10 125 -11 123 -12
226 -3 295 5 33 10 78 13 100 3 22 10 63 15 90 5 28 12 75 16 105 4 30 9 58
10 63 1 4 2 9 3 12 0 3 4 5 8 5 3 0 4 -2 1 -5z m-178 -318 c0 -8 9 -40 19 -73
25 -76 27 -84 46 -279 9 -89 14 -134 21 -195 3 -30 7 -75 9 -99 2 -24 6 -64 9
-90 11 -87 15 -141 10 -141 -3 0 -44 80 -92 178 -83 170 -86 180 -87 247 0 71
12 211 19 223 2 4 7 41 10 82 4 41 9 84 11 95 2 11 4 30 4 43 1 23 21 32 21 9z
m361 -4 c0 -10 2 -27 3 -38 2 -11 6 -47 10 -80 3 -33 13 -114 22 -180 25 -188
26 -180 -75 -389 -50 -102 -93 -186 -96 -186 -3 0 -4 17 -1 38 3 20 8 64 11
97 8 79 15 142 20 185 2 19 6 67 10 105 3 39 8 81 10 95 2 14 7 57 10 95 8 92
11 109 35 184 11 35 20 70 20 77 0 21 20 17 21 -3z m-478 -595 c53 -82 197
-356 197 -376 0 -18 -31 -22 -60 -7 -67 35 -111 100 -318 475 -20 36 -60 107
-89 159 -29 51 -53 96 -53 100 1 20 276 -279 323 -351z m878 315 c-45 -89
-331 -594 -352 -623 -21 -28 -103 -90 -118 -90 -3 0 -13 5 -21 10 -13 8 -3 33
58 156 104 208 167 299 316 452 71 72 131 132 133 132 2 0 -5 -17 -16 -37z
m-1146 -347 c119 -98 255 -249 255 -284 0 -30 -47 -39 -70 -13 -3 3 -38 33
-79 66 -72 58 -201 207 -201 231 0 7 -4 14 -8 16 -9 3 -82 122 -82 132 0 4 30
-19 68 -50 37 -31 89 -75 117 -98z m1231 38 c-98 -157 -146 -209 -317 -341
-22 -17 -59 -5 -59 20 0 42 182 230 338 351 15 11 43 35 62 53 19 17 36 30 38
28 2 -2 -26 -52 -62 -111z m-1086 -386 c0 -14 -51 -8 -87 9 -33 15 -113 85
-113 98 0 3 45 -18 100 -47 55 -29 100 -56 100 -60z m1005 89 c-26 -40 -103
-89 -148 -94 -38 -5 -40 -4 -27 10 12 12 177 106 188 107 1 0 -4 -11 -13 -23z"/>
<path d="M1580 2404 c-214 -46 -375 -202 -429 -416 -25 -97 -27 -248 -5 -335
53 -214 206 -368 417 -417 141 -34 353 -4 502 71 l58 30 2 204 c2 205 11 274
41 304 14 13 -3 15 -168 16 -101 1 -212 2 -248 3 -58 1 -65 -1 -66 -19 -2 -24
-13 -134 -19 -188 -5 -35 -3 -37 14 -27 11 5 23 14 26 20 9 14 132 50 171 50
l34 0 0 -134 0 -134 -49 -17 c-60 -20 -181 -21 -243 -2 -156 48 -242 196 -240
412 1 170 52 288 155 359 90 62 227 78 355 41 56 -17 146 -68 171 -98 12 -15
37 -14 27 1 -2 4 -7 45 -11 92 -4 47 -9 94 -10 105 -1 11 -3 28 -4 37 -3 43
-339 73 -481 42z"/>
<path d="M5346 2403 c-1 -2 -161 -3 -354 -4 l-352 0 24 -32 c56 -75 59 -98 61
-522 1 -260 -3 -408 -10 -445 -13 -63 -50 -140 -67 -140 -6 0 -8 -3 -4 -7 4
-5 168 -9 364 -9 196 -1 369 -4 384 -7 34 -7 34 -6 42 64 4 31 8 65 10 75 2
11 7 42 10 69 4 28 9 65 13 84 l6 35 -44 -43 c-97 -94 -206 -121 -455 -112
-20 1 -20 6 -20 184 l1 182 106 2 c123 2 173 -15 206 -67 l21 -33 11 54 c6 30
14 72 17 94 3 22 9 59 14 82 4 23 5 44 3 47 -2 2 -18 1 -36 -3 -18 -4 -102 -6
-187 -6 l-155 0 0 145 0 144 120 1 c189 1 275 -21 328 -85 23 -27 45 -42 34
-22 -3 4 -8 46 -12 93 -3 47 -8 95 -10 105 -2 11 -4 34 -4 52 -1 30 -3 32 -31
30 -17 -1 -32 -4 -34 -5z"/>
<path d="M390 2360 c34 -68 29 -95 -75 -395 -124 -358 -179 -513 -197 -548
-25 -48 -67 -111 -97 -146 -12 -13 -21 -25 -21 -26 0 -1 77 -1 170 -1 l170 0
-7 36 c-10 51 -7 86 12 152 l18 58 217 0 217 0 18 -61 c19 -69 22 -146 6 -162
-6 -6 -11 -14 -11 -17 0 -3 83 -6 185 -6 102 0 185 2 185 4 0 1 -12 15 -26 30
-66 70 -106 160 -240 537 -154 434 -152 428 -148 478 1 27 10 59 18 72 9 14
16 26 16 29 0 2 -97 4 -215 4 l-215 1 20 -39z m214 -297 c9 -40 41 -143 71
-229 30 -86 55 -162 55 -168 0 -8 -44 -11 -153 -11 l-154 0 63 186 c35 102 69
218 76 258 14 80 17 78 42 -36z"/>
<path d="M2570 2372 c40 -55 32 -122 -43 -332 -36 -102 -88 -252 -117 -335
-28 -82 -63 -181 -78 -220 -26 -67 -108 -205 -131 -219 -30 -19 2 -23 159 -22
148 1 169 3 164 16 -4 8 -8 37 -10 64 -2 46 4 74 28 139 l10 27 213 0 212 0
19 -47 c16 -44 23 -131 13 -178 -4 -19 1 -20 178 -20 l181 -1 -28 33 c-45 51
-99 149 -135 247 -19 50 -84 230 -145 400 -118 331 -125 366 -91 436 l19 39
-220 1 -219 0 21 -28z m289 -533 c34 -97 61 -178 61 -180 0 -2 -70 -4 -155 -4
-85 0 -155 1 -155 4 0 2 29 92 65 200 36 108 70 223 77 256 l11 60 18 -80 c10
-44 45 -159 78 -256z"/>
<path d="M3312 2351 c62 -69 86 -120 178 -376 45 -126 85 -239 90 -250 11 -25
62 -170 89 -252 25 -74 27 -140 6 -190 -8 -19 -15 -36 -15 -37 0 -2 92 -2 205
-2 113 0 205 3 205 7 0 4 -6 22 -14 40 -32 77 -28 91 231 824 49 138 79 197
125 244 l40 39 -177 2 -177 1 8 -23 c20 -57 6 -125 -81 -382 -48 -142 -89
-270 -91 -284 -3 -14 -7 -29 -9 -32 -2 -4 -7 -20 -10 -36 -15 -80 -43 -176
-44 -154 -2 51 -62 262 -131 460 -113 325 -112 320 -106 374 3 26 10 54 17 62
9 11 -20 14 -185 13 l-197 0 43 -48z"/>
</g>
</svg>
